<svg xmlns="http://www.w3.org/2000/svg" xmlns:xlink="http://www.w3.org/1999/xlink" viewBox="0,0,256,256" width="512px" height="512px"><defs><radialGradient cx="48.477" cy="36.475" r="22.942" gradientUnits="userSpaceOnUse" id="color-1"><stop offset="0" stop-color="#7bf9ff"></stop><stop offset="0.195" stop-color="#76feec"></stop><stop offset="0.439" stop-color="#66effa"></stop><stop offset="0.71" stop-color="#4dddf3"></stop><stop offset="0.997" stop-color="#38d2f0"></stop><stop offset="1" stop-color="#38d2f0"></stop></radialGradient><linearGradient x1="23.91" y1="18.133" x2="23.91" y2="42.415" gradientUnits="userSpaceOnUse" id="color-2"><stop offset="0" stop-color="#1597c2"></stop><stop offset="0.508" stop-color="#156db8"></stop><stop offset="1" stop-color="#1675ad"></stop></linearGradient></defs><g fill="none" fill-rule="nonzero" stroke="none" stroke-width="1" stroke-linecap="butt" stroke-linejoin="miter" stroke-miterlimit="10" stroke-dasharray="" stroke-dashoffset="0" font-family="none" font-weight="none" font-size="none" text-anchor="none" style="mix-blend-mode: normal"><g transform="scale(5.33333,5.33333)"><path d="M40,6h-32c-1.105,0 -2,0.895 -2,2v32c0,1.105 0.895,2 2,2h32c1.105,0 2,-0.895 2,-2v-32c0,-1.105 -0.895,-2 -2,-2z" fill="url(#color-1)"></path><path d="M32.065,23.065c-1.149,-1.149 -3.005,-1.174 -4.185,-0.057l-9.88,9.36v9.632h22c1.105,0 2,-0.895 2,-2v-7z" fill="#2d9dd6"></path><circle cx="30.5" cy="14.5" r="3.5" fill="#fff5de"></circle><path d="M8,42h32c0.811,0 1.507,-0.485 1.82,-1.18l-21.755,-21.755c-1.149,-1.149 -3.005,-1.174 -4.185,-0.057l-9.88,9.36v11.632c0,1.105 0.895,2 2,2z" fill="url(#color-2)"></path></g></g></svg>